<svg width="21" height="29" viewBox="0 0 21 29" fill="none" xmlns="http://www.w3.org/2000/svg">
<path d="M20.125 10.375C20.125 9.11103 19.876 7.85943 19.3923 6.69167C18.9086 5.52391 18.1997 4.46286 17.3059 3.5691C16.4121 2.67533 15.3511 1.96636 14.1833 1.48266C13.0156 0.998958 11.764 0.75 10.5 0.75C9.23603 0.75 7.98443 0.998958 6.81667 1.48266C5.64891 1.96636 4.58786 2.67533 3.6941 3.5691C2.80033 4.46286 2.09136 5.52391 1.60766 6.69167C1.12396 7.85943 0.875 9.11103 0.875 10.375C0.875 12.2821 1.43738 14.0559 2.39438 15.5519H2.38338L10.5 28.25L18.6166 15.5519H18.607C19.5982 14.0072 20.1251 12.2104 20.125 10.375ZM10.5 14.5C9.40598 14.5 8.35677 14.0654 7.58318 13.2918C6.8096 12.5182 6.375 11.469 6.375 10.375C6.375 9.28098 6.8096 8.23177 7.58318 7.45818C8.35677 6.6846 9.40598 6.25 10.5 6.25C11.594 6.25 12.6432 6.6846 13.4168 7.45818C14.1904 8.23177 14.625 9.28098 14.625 10.375C14.625 11.469 14.1904 12.5182 13.4168 13.2918C12.6432 14.0654 11.594 14.5 10.5 14.5Z" fill="#DFEEB6"/>
</svg>
